{
	"asset":{
		"generator":"Khronos glTF Blender I/O v4.3.47",
		"version":"2.0"
	},
	"scene":0,
	"scenes":[
		{
			"name":"Scene",
			"nodes":[
				0,
				1
			]
		}
	],
	"nodes":[
		{
			"mesh":0,
			"name":"Circle",
			"scale":[
				3.9847254753112793,
				3.9847254753112793,
				3.9847254753112793
			]
		},
		{
			"mesh":1,
			"name":"Circle.001",
			"scale":[
				7.729154109954834,
				7.729154109954834,
				7.729154109954834
			],
			"translation":[
				0,
				5.1554856300354,
				0
			]
		}
	],
	"meshes":[
		{
			"name":"Circle",
			"primitives":[
				{
					"attributes":{
						"POSITION":0,
						"NORMAL":1,
						"TEXCOORD_0":2
					},
					"indices":3
				}
			]
		},
		{
			"name":"Circle.001",
			"primitives":[
				{
					"attributes":{
						"POSITION":4,
						"NORMAL":5,
						"TEXCOORD_0":6
					},
					"indices":7
				}
			]
		}
	],
	"accessors":[
		{
			"bufferView":0,
			"componentType":5126,
			"count":224,
			"max":[
				1,
				1.3245222568511963,
				1
			],
			"min":[
				-1,
				0,
				-1
			],
			"type":"VEC3"
		},
		{
			"bufferView":1,
			"componentType":5126,
			"count":224,
			"type":"VEC3"
		},
		{
			"bufferView":2,
			"componentType":5126,
			"count":224,
			"type":"VEC2"
		},
		{
			"bufferView":3,
			"componentType":5123,
			"count":1332,
			"type":"SCALAR"
		},
		{
			"bufferView":4,
			"componentType":5126,
			"count":76,
			"max":[
				0.8529233932495117,
				0.20778751373291016,
				0.851476788520813
			],
			"min":[
				-0.8529233932495117,
				0.032984308898448944,
				-0.851476788520813
			],
			"type":"VEC3"
		},
		{
			"bufferView":5,
			"componentType":5126,
			"count":76,
			"type":"VEC3"
		},
		{
			"bufferView":6,
			"componentType":5126,
			"count":76,
			"type":"VEC2"
		},
		{
			"bufferView":7,
			"componentType":5123,
			"count":408,
			"type":"SCALAR"
		}
	],
	"bufferViews":[
		{
			"buffer":0,
			"byteLength":2688,
			"byteOffset":0,
			"target":34962
		},
		{
			"buffer":0,
			"byteLength":2688,
			"byteOffset":2688,
			"target":34962
		},
		{
			"buffer":0,
			"byteLength":1792,
			"byteOffset":5376,
			"target":34962
		},
		{
			"buffer":0,
			"byteLength":2664,
			"byteOffset":7168,
			"target":34963
		},
		{
			"buffer":0,
			"byteLength":912,
			"byteOffset":9832,
			"target":34962
		},
		{
			"buffer":0,
			"byteLength":912,
			"byteOffset":10744,
			"target":34962
		},
		{
			"buffer":0,
			"byteLength":608,
			"byteOffset":11656,
			"target":34962
		},
		{
			"buffer":0,
			"byteLength":816,
			"byteOffset":12264,
			"target":34963
		}
	],
	"buffers":[
		{
			"byteLength":13080,
			"uri":"mesa.bin"
		}
	]
}
