{
	"asset":{
		"generator":"Khronos glTF Blender I/O v4.3.47",
		"version":"2.0"
	},
	"extensionsUsed":[
		"KHR_materials_transmission",
		"KHR_materials_ior"
	],
	"scene":0,
	"scenes":[
		{
			"name":"Scene",
			"nodes":[
				24
			]
		}
	],
	"nodes":[
		{
			"name":"leg.L",
			"rotation":[
				-0.7016171216964722,
				0.04209363833069801,
				-0.006338831502944231,
				0.7112814784049988
			],
			"scale":[
				0.9999997615814209,
				0.9999999403953552,
				0.9999998807907104
			],
			"translation":[
				1.3234995321909082e-09,
				1.0018491744995117,
				2.620872692205012e-07
			]
		},
		{
			"children":[
				0
			],
			"name":"ingle.L",
			"rotation":[
				0.06738319993019104,
				-0.06656207889318466,
				-0.6995991468429565,
				0.708230197429657
			],
			"scale":[
				0.9999999403953552,
				0.9999998807907104,
				0.9999999403953552
			],
			"translation":[
				0.1445046067237854,
				-1.6485000848770142,
				1.7346597909927368
			]
		},
		{
			"name":"leg.R",
			"rotation":[
				-0.7016171216964722,
				-0.04209363833069801,
				0.006338831502944231,
				0.7112814784049988
			],
			"scale":[
				0.9999997615814209,
				0.9999999403953552,
				0.9999998807907104
			],
			"translation":[
				2.401790766271006e-09,
				1.0018492937088013,
				1.875814632512629e-07
			]
		},
		{
			"children":[
				2
			],
			"name":"ingle.R",
			"rotation":[
				0.06738319993019104,
				0.06656207889318466,
				0.6995991468429565,
				0.708230197429657
			],
			"scale":[
				0.9999999403953552,
				0.9999998807907104,
				0.9999999403953552
			],
			"translation":[
				0.1445046067237854,
				-1.6485000848770142,
				1.7346597909927368
			]
		},
		{
			"name":"ear.L",
			"rotation":[
				-0.25758352875709534,
				0.3931889832019806,
				0.21283398568630219,
				0.8565949201583862
			],
			"scale":[
				0.9999999403953552,
				1.0000001192092896,
				0.9999998807907104
			],
			"translation":[
				-1.0819057933986187e-06,
				1.490958571434021,
				-3.725290298461914e-09
			]
		},
		{
			"children":[
				4
			],
			"name":"oido.L",
			"rotation":[
				0.12444867938756943,
				-0.12444884330034256,
				-0.6935828924179077,
				0.6985469460487366
			],
			"scale":[
				0.9999998807907104,
				0.9999998211860657,
				1
			],
			"translation":[
				-4.656612873077393e-10,
				2.704533576965332,
				-3.725290298461914e-09
			]
		},
		{
			"name":"ear.R",
			"rotation":[
				-0.25758352875709534,
				-0.3931889832019806,
				-0.21283398568630219,
				0.8565949201583862
			],
			"scale":[
				0.9999999403953552,
				1.0000001192092896,
				0.9999998807907104
			],
			"translation":[
				1.1675874702632427e-06,
				1.490958571434021,
				-1.4901161193847656e-08
			]
		},
		{
			"children":[
				6
			],
			"name":"oido.R",
			"rotation":[
				0.12444867938756943,
				0.12444884330034256,
				0.6935828924179077,
				0.6985469460487366
			],
			"scale":[
				0.9999998807907104,
				0.9999998211860657,
				1
			],
			"translation":[
				-4.656612873077393e-10,
				2.704533576965332,
				-3.725290298461914e-09
			]
		},
		{
			"children":[
				5,
				7
			],
			"name":"Bone.003",
			"translation":[
				-4.656612873077393e-10,
				0.6726369857788086,
				-3.725290298461914e-09
			]
		},
		{
			"children":[
				8
			],
			"name":"Bone.002",
			"rotation":[
				-3.281625804429922e-10,
				0,
				0,
				1
			],
			"translation":[
				-4.656612873077393e-10,
				2.5358922481536865,
				-6.854716794180149e-09
			]
		},
		{
			"name":"arm.L",
			"rotation":[
				-0.030258968472480774,
				-0.16791342198848724,
				-0.4308917820453644,
				0.8861274123191833
			],
			"scale":[
				0.9999999403953552,
				0.9999998211860657,
				0.9999999403953552
			],
			"translation":[
				4.054319546753504e-09,
				2.0560898780822754,
				-1.3713474800169934e-09
			]
		},
		{
			"name":"hombro.L.001",
			"rotation":[
				-0.08997801691293716,
				-3.883654642322654e-08,
				0.9592228531837463,
				0.2679468095302582
			],
			"scale":[
				0.9999998211860657,
				1,
				1
			],
			"translation":[
				4.054319546753504e-09,
				2.0560898780822754,
				-1.3713474800169934e-09
			]
		},
		{
			"children":[
				10,
				11
			],
			"name":"hombro.L",
			"rotation":[
				-2.69245834516596e-08,
				-2.69245834516596e-08,
				-0.7071067690849304,
				0.7071067690849304
			],
			"translation":[
				-4.656612873077393e-10,
				2.5358922481536865,
				-6.854716794180149e-09
			]
		},
		{
			"name":"arm.R",
			"rotation":[
				-0.07551927119493484,
				0.17191772162914276,
				0.39609524607658386,
				0.8988046050071716
			],
			"scale":[
				0.9999998807907104,
				0.9999999403953552,
				0.9999998211860657
			],
			"translation":[
				2.293813849973958e-07,
				1.8836634159088135,
				2.310628133272985e-09
			]
		},
		{
			"name":"hombro.R.001",
			"rotation":[
				-0.21457324922084808,
				0.5255488157272339,
				-0.49041932821273804,
				0.6612455248832703
			],
			"scale":[
				1,
				0.9999998807907104,
				0.9999999403953552
			],
			"translation":[
				2.293813849973958e-07,
				1.8836634159088135,
				2.310628133272985e-09
			]
		},
		{
			"children":[
				13,
				14
			],
			"name":"hombro.R",
			"rotation":[
				0.02054048888385296,
				0.020540621131658554,
				0.7068083882331848,
				0.7068084478378296
			],
			"scale":[
				1,
				0.9999999403953552,
				0.9999999403953552
			],
			"translation":[
				-4.656612873077393e-10,
				2.5358922481536865,
				-6.854716794180149e-09
			]
		},
		{
			"children":[
				9,
				12,
				15
			],
			"name":"Bone.001",
			"rotation":[
				3.281626081985678e-10,
				0,
				0,
				1
			],
			"translation":[
				-4.656612873077393e-10,
				0.5532239675521851,
				-3.725290298461914e-09
			]
		},
		{
			"children":[
				16
			],
			"name":"Bone",
			"rotation":[
				0.7071067690849304,
				0,
				0,
				0.7071067690849304
			],
			"translation":[
				0.1445046067237854,
				-1.6485000848770142,
				1.7346597909927368
			]
		},
		{
			"children":[
				1,
				3,
				17
			],
			"name":"ingle.R.001",
			"rotation":[
				-0.7071067690849304,
				0,
				0,
				0.7071067690849304
			],
			"translation":[
				-0.1445046067237854,
				-1.5112719535827637,
				-1.6484999656677246
			]
		},
		{
			"mesh":0,
			"name":"Cube",
			"skin":0
		},
		{
			"mesh":1,
			"name":"Cube.002",
			"skin":0
		},
		{
			"mesh":2,
			"name":"Cube.003",
			"skin":0
		},
		{
			"mesh":3,
			"name":"Cube.004",
			"skin":0
		},
		{
			"mesh":4,
			"name":"Cube.009",
			"skin":0
		},
		{
			"children":[
				19,
				20,
				21,
				22,
				23,
				18
			],
			"name":"Armature.001",
			"scale":[
				0.3495924472808838,
				0.3495924472808838,
				0.3495924472808838
			],
			"translation":[
				0.0018113318365067244,
				0.5088666081428528,
				0.01877349615097046
			]
		}
	],
	"animations":[
		{
			"channels":[
				{
					"sampler":0,
					"target":{
						"node":18,
						"path":"translation"
					}
				},
				{
					"sampler":1,
					"target":{
						"node":18,
						"path":"rotation"
					}
				},
				{
					"sampler":2,
					"target":{
						"node":18,
						"path":"scale"
					}
				},
				{
					"sampler":3,
					"target":{
						"node":1,
						"path":"translation"
					}
				},
				{
					"sampler":4,
					"target":{
						"node":1,
						"path":"rotation"
					}
				},
				{
					"sampler":5,
					"target":{
						"node":1,
						"path":"scale"
					}
				},
				{
					"sampler":6,
					"target":{
						"node":0,
						"path":"translation"
					}
				},
				{
					"sampler":7,
					"target":{
						"node":0,
						"path":"rotation"
					}
				},
				{
					"sampler":8,
					"target":{
						"node":0,
						"path":"scale"
					}
				},
				{
					"sampler":9,
					"target":{
						"node":3,
						"path":"translation"
					}
				},
				{
					"sampler":10,
					"target":{
						"node":3,
						"path":"rotation"
					}
				},
				{
					"sampler":11,
					"target":{
						"node":3,
						"path":"scale"
					}
				},
				{
					"sampler":12,
					"target":{
						"node":2,
						"path":"translation"
					}
				},
				{
					"sampler":13,
					"target":{
						"node":2,
						"path":"rotation"
					}
				},
				{
					"sampler":14,
					"target":{
						"node":2,
						"path":"scale"
					}
				},
				{
					"sampler":15,
					"target":{
						"node":17,
						"path":"translation"
					}
				},
				{
					"sampler":16,
					"target":{
						"node":17,
						"path":"rotation"
					}
				},
				{
					"sampler":17,
					"target":{
						"node":17,
						"path":"scale"
					}
				},
				{
					"sampler":18,
					"target":{
						"node":16,
						"path":"translation"
					}
				},
				{
					"sampler":19,
					"target":{
						"node":16,
						"path":"rotation"
					}
				},
				{
					"sampler":20,
					"target":{
						"node":16,
						"path":"scale"
					}
				},
				{
					"sampler":21,
					"target":{
						"node":9,
						"path":"translation"
					}
				},
				{
					"sampler":22,
					"target":{
						"node":9,
						"path":"rotation"
					}
				},
				{
					"sampler":23,
					"target":{
						"node":9,
						"path":"scale"
					}
				},
				{
					"sampler":24,
					"target":{
						"node":8,
						"path":"translation"
					}
				},
				{
					"sampler":25,
					"target":{
						"node":8,
						"path":"rotation"
					}
				},
				{
					"sampler":26,
					"target":{
						"node":8,
						"path":"scale"
					}
				},
				{
					"sampler":27,
					"target":{
						"node":5,
						"path":"translation"
					}
				},
				{
					"sampler":28,
					"target":{
						"node":5,
						"path":"rotation"
					}
				},
				{
					"sampler":29,
					"target":{
						"node":5,
						"path":"scale"
					}
				},
				{
					"sampler":30,
					"target":{
						"node":4,
						"path":"translation"
					}
				},
				{
					"sampler":31,
					"target":{
						"node":4,
						"path":"rotation"
					}
				},
				{
					"sampler":32,
					"target":{
						"node":4,
						"path":"scale"
					}
				},
				{
					"sampler":33,
					"target":{
						"node":7,
						"path":"translation"
					}
				},
				{
					"sampler":34,
					"target":{
						"node":7,
						"path":"rotation"
					}
				},
				{
					"sampler":35,
					"target":{
						"node":7,
						"path":"scale"
					}
				},
				{
					"sampler":36,
					"target":{
						"node":6,
						"path":"translation"
					}
				},
				{
					"sampler":37,
					"target":{
						"node":6,
						"path":"rotation"
					}
				},
				{
					"sampler":38,
					"target":{
						"node":6,
						"path":"scale"
					}
				},
				{
					"sampler":39,
					"target":{
						"node":12,
						"path":"translation"
					}
				},
				{
					"sampler":40,
					"target":{
						"node":12,
						"path":"rotation"
					}
				},
				{
					"sampler":41,
					"target":{
						"node":12,
						"path":"scale"
					}
				},
				{
					"sampler":42,
					"target":{
						"node":10,
						"path":"translation"
					}
				},
				{
					"sampler":43,
					"target":{
						"node":10,
						"path":"rotation"
					}
				},
				{
					"sampler":44,
					"target":{
						"node":10,
						"path":"scale"
					}
				},
				{
					"sampler":45,
					"target":{
						"node":11,
						"path":"translation"
					}
				},
				{
					"sampler":46,
					"target":{
						"node":11,
						"path":"rotation"
					}
				},
				{
					"sampler":47,
					"target":{
						"node":11,
						"path":"scale"
					}
				},
				{
					"sampler":48,
					"target":{
						"node":15,
						"path":"translation"
					}
				},
				{
					"sampler":49,
					"target":{
						"node":15,
						"path":"rotation"
					}
				},
				{
					"sampler":50,
					"target":{
						"node":15,
						"path":"scale"
					}
				},
				{
					"sampler":51,
					"target":{
						"node":13,
						"path":"translation"
					}
				},
				{
					"sampler":52,
					"target":{
						"node":13,
						"path":"rotation"
					}
				},
				{
					"sampler":53,
					"target":{
						"node":13,
						"path":"scale"
					}
				},
				{
					"sampler":54,
					"target":{
						"node":14,
						"path":"translation"
					}
				},
				{
					"sampler":55,
					"target":{
						"node":14,
						"path":"rotation"
					}
				},
				{
					"sampler":56,
					"target":{
						"node":14,
						"path":"scale"
					}
				}
			],
			"name":"Armature.001Action",
			"samplers":[
				{
					"input":31,
					"interpolation":"LINEAR",
					"output":32
				},
				{
					"input":33,
					"interpolation":"STEP",
					"output":34
				},
				{
					"input":33,
					"interpolation":"STEP",
					"output":35
				},
				{
					"input":33,
					"interpolation":"STEP",
					"output":36
				},
				{
					"input":33,
					"interpolation":"STEP",
					"output":37
				},
				{
					"input":33,
					"interpolation":"STEP",
					"output":38
				},
				{
					"input":33,
					"interpolation":"LINEAR",
					"output":39
				},
				{
					"input":31,
					"interpolation":"LINEAR",
					"output":40
				},
				{
					"input":33,
					"interpolation":"LINEAR",
					"output":41
				},
				{
					"input":33,
					"interpolation":"STEP",
					"output":42
				},
				{
					"input":33,
					"interpolation":"STEP",
					"output":43
				},
				{
					"input":33,
					"interpolation":"STEP",
					"output":44
				},
				{
					"input":33,
					"interpolation":"LINEAR",
					"output":45
				},
				{
					"input":31,
					"interpolation":"LINEAR",
					"output":46
				},
				{
					"input":33,
					"interpolation":"LINEAR",
					"output":47
				},
				{
					"input":33,
					"interpolation":"STEP",
					"output":48
				},
				{
					"input":33,
					"interpolation":"STEP",
					"output":49
				},
				{
					"input":33,
					"interpolation":"STEP",
					"output":50
				},
				{
					"input":33,
					"interpolation":"STEP",
					"output":51
				},
				{
					"input":33,
					"interpolation":"STEP",
					"output":52
				},
				{
					"input":33,
					"interpolation":"STEP",
					"output":53
				},
				{
					"input":33,
					"interpolation":"STEP",
					"output":54
				},
				{
					"input":33,
					"interpolation":"STEP",
					"output":55
				},
				{
					"input":33,
					"interpolation":"STEP",
					"output":56
				},
				{
					"input":33,
					"interpolation":"STEP",
					"output":57
				},
				{
					"input":33,
					"interpolation":"STEP",
					"output":58
				},
				{
					"input":33,
					"interpolation":"STEP",
					"output":59
				},
				{
					"input":33,
					"interpolation":"STEP",
					"output":60
				},
				{
					"input":33,
					"interpolation":"STEP",
					"output":61
				},
				{
					"input":33,
					"interpolation":"STEP",
					"output":62
				},
				{
					"input":33,
					"interpolation":"LINEAR",
					"output":63
				},
				{
					"input":31,
					"interpolation":"LINEAR",
					"output":64
				},
				{
					"input":33,
					"interpolation":"STEP",
					"output":65
				},
				{
					"input":33,
					"interpolation":"STEP",
					"output":66
				},
				{
					"input":33,
					"interpolation":"STEP",
					"output":67
				},
				{
					"input":33,
					"interpolation":"STEP",
					"output":68
				},
				{
					"input":33,
					"interpolation":"LINEAR",
					"output":69
				},
				{
					"input":31,
					"interpolation":"LINEAR",
					"output":70
				},
				{
					"input":33,
					"interpolation":"LINEAR",
					"output":71
				},
				{
					"input":33,
					"interpolation":"LINEAR",
					"output":72
				},
				{
					"input":31,
					"interpolation":"LINEAR",
					"output":73
				},
				{
					"input":33,
					"interpolation":"STEP",
					"output":74
				},
				{
					"input":33,
					"interpolation":"LINEAR",
					"output":75
				},
				{
					"input":31,
					"interpolation":"LINEAR",
					"output":76
				},
				{
					"input":33,
					"interpolation":"LINEAR",
					"output":77
				},
				{
					"input":33,
					"interpolation":"STEP",
					"output":78
				},
				{
					"input":33,
					"interpolation":"STEP",
					"output":79
				},
				{
					"input":33,
					"interpolation":"STEP",
					"output":80
				},
				{
					"input":33,
					"interpolation":"LINEAR",
					"output":81
				},
				{
					"input":31,
					"interpolation":"LINEAR",
					"output":82
				},
				{
					"input":33,
					"interpolation":"STEP",
					"output":83
				},
				{
					"input":33,
					"interpolation":"LINEAR",
					"output":84
				},
				{
					"input":31,
					"interpolation":"LINEAR",
					"output":85
				},
				{
					"input":33,
					"interpolation":"LINEAR",
					"output":86
				},
				{
					"input":33,
					"interpolation":"STEP",
					"output":87
				},
				{
					"input":33,
					"interpolation":"STEP",
					"output":88
				},
				{
					"input":33,
					"interpolation":"STEP",
					"output":89
				}
			]
		}
	],
	"materials":[
		{
			"doubleSided":true,
			"extensions":{
				"KHR_materials_transmission":{
					"transmissionFactor":1
				},
				"KHR_materials_ior":{
					"ior":1.4500000476837158
				}
			},
			"name":"Material",
			"pbrMetallicRoughness":{
				"baseColorFactor":[
					0.8025200366973877,
					0,
					0.16008636355400085,
					1
				],
				"metallicFactor":0,
				"roughnessFactor":0.36399999260902405
			}
		}
	],
	"meshes":[
		{
			"name":"Cube",
			"primitives":[
				{
					"attributes":{
						"POSITION":0,
						"NORMAL":1,
						"TEXCOORD_0":2,
						"JOINTS_0":3,
						"WEIGHTS_0":4
					},
					"indices":5,
					"material":0
				}
			]
		},
		{
			"name":"Cube.002",
			"primitives":[
				{
					"attributes":{
						"POSITION":7,
						"NORMAL":8,
						"TEXCOORD_0":9,
						"JOINTS_0":10,
						"WEIGHTS_0":11
					},
					"indices":12,
					"material":0
				}
			]
		},
		{
			"name":"Cube.003",
			"primitives":[
				{
					"attributes":{
						"POSITION":13,
						"NORMAL":14,
						"TEXCOORD_0":15,
						"JOINTS_0":16,
						"WEIGHTS_0":17
					},
					"indices":18,
					"material":0
				}
			]
		},
		{
			"name":"Cube.004",
			"primitives":[
				{
					"attributes":{
						"POSITION":19,
						"NORMAL":20,
						"TEXCOORD_0":21,
						"JOINTS_0":22,
						"WEIGHTS_0":23
					},
					"indices":24,
					"material":0
				}
			]
		},
		{
			"name":"Cube.009",
			"primitives":[
				{
					"attributes":{
						"POSITION":25,
						"NORMAL":26,
						"TEXCOORD_0":27,
						"JOINTS_0":28,
						"WEIGHTS_0":29
					},
					"indices":30,
					"material":0
				}
			]
		}
	],
	"skins":[
		{
			"inverseBindMatrices":6,
			"joints":[
				18,
				1,
				0,
				3,
				2,
				17,
				16,
				9,
				8,
				5,
				4,
				7,
				6,
				12,
				10,
				11,
				15,
				13,
				14
			],
			"name":"Armature.001"
		}
	],
	"accessors":[
		{
			"bufferView":0,
			"componentType":5126,
			"count":63,
			"max":[
				0.9013609290122986,
				2.2315335273742676,
				0.8138422966003418
			],
			"min":[
				-0.9013609290122986,
				0.31779420375823975,
				-0.7320103645324707
			],
			"type":"VEC3"
		},
		{
			"bufferView":1,
			"componentType":5126,
			"count":63,
			"type":"VEC3"
		},
		{
			"bufferView":2,
			"componentType":5126,
			"count":63,
			"type":"VEC2"
		},
		{
			"bufferView":3,
			"componentType":5121,
			"count":63,
			"type":"VEC4"
		},
		{
			"bufferView":4,
			"componentType":5126,
			"count":63,
			"type":"VEC4"
		},
		{
			"bufferView":5,
			"componentType":5123,
			"count":288,
			"type":"SCALAR"
		},
		{
			"bufferView":6,
			"componentType":5126,
			"count":19,
			"type":"MAT4"
		},
		{
			"bufferView":7,
			"componentType":5126,
			"count":63,
			"max":[
				-0.05963880941271782,
				1.149519920349121,
				0.3315591514110565
			],
			"min":[
				-0.8051909804344177,
				-0.04491555690765381,
				-0.32258716225624084
			],
			"type":"VEC3"
		},
		{
			"bufferView":8,
			"componentType":5126,
			"count":63,
			"type":"VEC3"
		},
		{
			"bufferView":9,
			"componentType":5126,
			"count":63,
			"type":"VEC2"
		},
		{
			"bufferView":10,
			"componentType":5121,
			"count":63,
			"type":"VEC4"
		},
		{
			"bufferView":11,
			"componentType":5126,
			"count":63,
			"type":"VEC4"
		},
		{
			"bufferView":12,
			"componentType":5123,
			"count":288,
			"type":"SCALAR"
		},
		{
			"bufferView":13,
			"componentType":5126,
			"count":63,
			"max":[
				-0.5444034337997437,
				1.8915622234344482,
				0.41571304202079773
			],
			"min":[
				-1.473000407218933,
				0.8761407732963562,
				-0.23967918753623962
			],
			"type":"VEC3"
		},
		{
			"bufferView":14,
			"componentType":5126,
			"count":63,
			"type":"VEC3"
		},
		{
			"bufferView":15,
			"componentType":5126,
			"count":63,
			"type":"VEC2"
		},
		{
			"bufferView":16,
			"componentType":5121,
			"count":63,
			"type":"VEC4"
		},
		{
			"bufferView":17,
			"componentType":5126,
			"count":63,
			"type":"VEC4"
		},
		{
			"bufferView":18,
			"componentType":5123,
			"count":288,
			"type":"SCALAR"
		},
		{
			"bufferView":19,
			"componentType":5126,
			"count":39,
			"max":[
				0.9801046848297119,
				3.2184247970581055,
				0.7716731429100037
			],
			"min":[
				-0.9801046848297119,
				1.6189591884613037,
				-0.7716731429100037
			],
			"type":"VEC3"
		},
		{
			"bufferView":20,
			"componentType":5126,
			"count":39,
			"type":"VEC3"
		},
		{
			"bufferView":21,
			"componentType":5126,
			"count":39,
			"type":"VEC2"
		},
		{
			"bufferView":22,
			"componentType":5121,
			"count":39,
			"type":"VEC4"
		},
		{
			"bufferView":23,
			"componentType":5126,
			"count":39,
			"type":"VEC4"
		},
		{
			"bufferView":24,
			"componentType":5123,
			"count":144,
			"type":"SCALAR"
		},
		{
			"bufferView":25,
			"componentType":5126,
			"count":63,
			"max":[
				1.0133925676345825,
				3.32814621925354,
				0.3880281448364258
			],
			"min":[
				0.2839116156101227,
				2.6949238777160645,
				-0.02037263847887516
			],
			"type":"VEC3"
		},
		{
			"bufferView":26,
			"componentType":5126,
			"count":63,
			"type":"VEC3"
		},
		{
			"bufferView":27,
			"componentType":5126,
			"count":63,
			"type":"VEC2"
		},
		{
			"bufferView":28,
			"componentType":5121,
			"count":63,
			"type":"VEC4"
		},
		{
			"bufferView":29,
			"componentType":5126,
			"count":63,
			"type":"VEC4"
		},
		{
			"bufferView":30,
			"componentType":5123,
			"count":288,
			"type":"SCALAR"
		},
		{
			"bufferView":31,
			"componentType":5126,
			"count":251,
			"max":[
				10.416666666666666
			],
			"min":[
				0
			],
			"type":"SCALAR"
		},
		{
			"bufferView":32,
			"componentType":5126,
			"count":251,
			"type":"VEC3"
		},
		{
			"bufferView":33,
			"componentType":5126,
			"count":2,
			"max":[
				10.416666666666666
			],
			"min":[
				0
			],
			"type":"SCALAR"
		},
		{
			"bufferView":34,
			"componentType":5126,
			"count":2,
			"type":"VEC4"
		},
		{
			"bufferView":35,
			"componentType":5126,
			"count":2,
			"type":"VEC3"
		},
		{
			"bufferView":36,
			"componentType":5126,
			"count":2,
			"type":"VEC3"
		},
		{
			"bufferView":37,
			"componentType":5126,
			"count":2,
			"type":"VEC4"
		},
		{
			"bufferView":38,
			"componentType":5126,
			"count":2,
			"type":"VEC3"
		},
		{
			"bufferView":39,
			"componentType":5126,
			"count":2,
			"type":"VEC3"
		},
		{
			"bufferView":40,
			"componentType":5126,
			"count":251,
			"type":"VEC4"
		},
		{
			"bufferView":41,
			"componentType":5126,
			"count":2,
			"type":"VEC3"
		},
		{
			"bufferView":42,
			"componentType":5126,
			"count":2,
			"type":"VEC3"
		},
		{
			"bufferView":43,
			"componentType":5126,
			"count":2,
			"type":"VEC4"
		},
		{
			"bufferView":44,
			"componentType":5126,
			"count":2,
			"type":"VEC3"
		},
		{
			"bufferView":45,
			"componentType":5126,
			"count":2,
			"type":"VEC3"
		},
		{
			"bufferView":46,
			"componentType":5126,
			"count":251,
			"type":"VEC4"
		},
		{
			"bufferView":47,
			"componentType":5126,
			"count":2,
			"type":"VEC3"
		},
		{
			"bufferView":48,
			"componentType":5126,
			"count":2,
			"type":"VEC3"
		},
		{
			"bufferView":49,
			"componentType":5126,
			"count":2,
			"type":"VEC4"
		},
		{
			"bufferView":50,
			"componentType":5126,
			"count":2,
			"type":"VEC3"
		},
		{
			"bufferView":51,
			"componentType":5126,
			"count":2,
			"type":"VEC3"
		},
		{
			"bufferView":52,
			"componentType":5126,
			"count":2,
			"type":"VEC4"
		},
		{
			"bufferView":53,
			"componentType":5126,
			"count":2,
			"type":"VEC3"
		},
		{
			"bufferView":54,
			"componentType":5126,
			"count":2,
			"type":"VEC3"
		},
		{
			"bufferView":55,
			"componentType":5126,
			"count":2,
			"type":"VEC4"
		},
		{
			"bufferView":56,
			"componentType":5126,
			"count":2,
			"type":"VEC3"
		},
		{
			"bufferView":57,
			"componentType":5126,
			"count":2,
			"type":"VEC3"
		},
		{
			"bufferView":58,
			"componentType":5126,
			"count":2,
			"type":"VEC4"
		},
		{
			"bufferView":59,
			"componentType":5126,
			"count":2,
			"type":"VEC3"
		},
		{
			"bufferView":60,
			"componentType":5126,
			"count":2,
			"type":"VEC3"
		},
		{
			"bufferView":61,
			"componentType":5126,
			"count":2,
			"type":"VEC4"
		},
		{
			"bufferView":62,
			"componentType":5126,
			"count":2,
			"type":"VEC3"
		},
		{
			"bufferView":63,
			"componentType":5126,
			"count":2,
			"type":"VEC3"
		},
		{
			"bufferView":64,
			"componentType":5126,
			"count":251,
			"type":"VEC4"
		},
		{
			"bufferView":65,
			"componentType":5126,
			"count":2,
			"type":"VEC3"
		},
		{
			"bufferView":66,
			"componentType":5126,
			"count":2,
			"type":"VEC3"
		},
		{
			"bufferView":67,
			"componentType":5126,
			"count":2,
			"type":"VEC4"
		},
		{
			"bufferView":68,
			"componentType":5126,
			"count":2,
			"type":"VEC3"
		},
		{
			"bufferView":69,
			"componentType":5126,
			"count":2,
			"type":"VEC3"
		},
		{
			"bufferView":70,
			"componentType":5126,
			"count":251,
			"type":"VEC4"
		},
		{
			"bufferView":71,
			"componentType":5126,
			"count":2,
			"type":"VEC3"
		},
		{
			"bufferView":72,
			"componentType":5126,
			"count":2,
			"type":"VEC3"
		},
		{
			"bufferView":73,
			"componentType":5126,
			"count":251,
			"type":"VEC4"
		},
		{
			"bufferView":74,
			"componentType":5126,
			"count":2,
			"type":"VEC3"
		},
		{
			"bufferView":75,
			"componentType":5126,
			"count":2,
			"type":"VEC3"
		},
		{
			"bufferView":76,
			"componentType":5126,
			"count":251,
			"type":"VEC4"
		},
		{
			"bufferView":77,
			"componentType":5126,
			"count":2,
			"type":"VEC3"
		},
		{
			"bufferView":78,
			"componentType":5126,
			"count":2,
			"type":"VEC3"
		},
		{
			"bufferView":79,
			"componentType":5126,
			"count":2,
			"type":"VEC4"
		},
		{
			"bufferView":80,
			"componentType":5126,
			"count":2,
			"type":"VEC3"
		},
		{
			"bufferView":81,
			"componentType":5126,
			"count":2,
			"type":"VEC3"
		},
		{
			"bufferView":82,
			"componentType":5126,
			"count":251,
			"type":"VEC4"
		},
		{
			"bufferView":83,
			"componentType":5126,
			"count":2,
			"type":"VEC3"
		},
		{
			"bufferView":84,
			"componentType":5126,
			"count":2,
			"type":"VEC3"
		},
		{
			"bufferView":85,
			"componentType":5126,
			"count":251,
			"type":"VEC4"
		},
		{
			"bufferView":86,
			"componentType":5126,
			"count":2,
			"type":"VEC3"
		},
		{
			"bufferView":87,
			"componentType":5126,
			"count":2,
			"type":"VEC3"
		},
		{
			"bufferView":88,
			"componentType":5126,
			"count":2,
			"type":"VEC4"
		},
		{
			"bufferView":89,
			"componentType":5126,
			"count":2,
			"type":"VEC3"
		}
	],
	"bufferViews":[
		{
			"buffer":0,
			"byteLength":756,
			"byteOffset":0,
			"target":34962
		},
		{
			"buffer":0,
			"byteLength":756,
			"byteOffset":756,
			"target":34962
		},
		{
			"buffer":0,
			"byteLength":504,
			"byteOffset":1512,
			"target":34962
		},
		{
			"buffer":0,
			"byteLength":252,
			"byteOffset":2016,
			"target":34962
		},
		{
			"buffer":0,
			"byteLength":1008,
			"byteOffset":2268,
			"target":34962
		},
		{
			"buffer":0,
			"byteLength":576,
			"byteOffset":3276,
			"target":34963
		},
		{
			"buffer":0,
			"byteLength":1216,
			"byteOffset":3852
		},
		{
			"buffer":0,
			"byteLength":756,
			"byteOffset":5068,
			"target":34962
		},
		{
			"buffer":0,
			"byteLength":756,
			"byteOffset":5824,
			"target":34962
		},
		{
			"buffer":0,
			"byteLength":504,
			"byteOffset":6580,
			"target":34962
		},
		{
			"buffer":0,
			"byteLength":252,
			"byteOffset":7084,
			"target":34962
		},
		{
			"buffer":0,
			"byteLength":1008,
			"byteOffset":7336,
			"target":34962
		},
		{
			"buffer":0,
			"byteLength":576,
			"byteOffset":8344,
			"target":34963
		},
		{
			"buffer":0,
			"byteLength":756,
			"byteOffset":8920,
			"target":34962
		},
		{
			"buffer":0,
			"byteLength":756,
			"byteOffset":9676,
			"target":34962
		},
		{
			"buffer":0,
			"byteLength":504,
			"byteOffset":10432,
			"target":34962
		},
		{
			"buffer":0,
			"byteLength":252,
			"byteOffset":10936,
			"target":34962
		},
		{
			"buffer":0,
			"byteLength":1008,
			"byteOffset":11188,
			"target":34962
		},
		{
			"buffer":0,
			"byteLength":576,
			"byteOffset":12196,
			"target":34963
		},
		{
			"buffer":0,
			"byteLength":468,
			"byteOffset":12772,
			"target":34962
		},
		{
			"buffer":0,
			"byteLength":468,
			"byteOffset":13240,
			"target":34962
		},
		{
			"buffer":0,
			"byteLength":312,
			"byteOffset":13708,
			"target":34962
		},
		{
			"buffer":0,
			"byteLength":156,
			"byteOffset":14020,
			"target":34962
		},
		{
			"buffer":0,
			"byteLength":624,
			"byteOffset":14176,
			"target":34962
		},
		{
			"buffer":0,
			"byteLength":288,
			"byteOffset":14800,
			"target":34963
		},
		{
			"buffer":0,
			"byteLength":756,
			"byteOffset":15088,
			"target":34962
		},
		{
			"buffer":0,
			"byteLength":756,
			"byteOffset":15844,
			"target":34962
		},
		{
			"buffer":0,
			"byteLength":504,
			"byteOffset":16600,
			"target":34962
		},
		{
			"buffer":0,
			"byteLength":252,
			"byteOffset":17104,
			"target":34962
		},
		{
			"buffer":0,
			"byteLength":1008,
			"byteOffset":17356,
			"target":34962
		},
		{
			"buffer":0,
			"byteLength":576,
			"byteOffset":18364,
			"target":34963
		},
		{
			"buffer":0,
			"byteLength":1004,
			"byteOffset":18940
		},
		{
			"buffer":0,
			"byteLength":3012,
			"byteOffset":19944
		},
		{
			"buffer":0,
			"byteLength":8,
			"byteOffset":22956
		},
		{
			"buffer":0,
			"byteLength":32,
			"byteOffset":22964
		},
		{
			"buffer":0,
			"byteLength":24,
			"byteOffset":22996
		},
		{
			"buffer":0,
			"byteLength":24,
			"byteOffset":23020
		},
		{
			"buffer":0,
			"byteLength":32,
			"byteOffset":23044
		},
		{
			"buffer":0,
			"byteLength":24,
			"byteOffset":23076
		},
		{
			"buffer":0,
			"byteLength":24,
			"byteOffset":23100
		},
		{
			"buffer":0,
			"byteLength":4016,
			"byteOffset":23124
		},
		{
			"buffer":0,
			"byteLength":24,
			"byteOffset":27140
		},
		{
			"buffer":0,
			"byteLength":24,
			"byteOffset":27164
		},
		{
			"buffer":0,
			"byteLength":32,
			"byteOffset":27188
		},
		{
			"buffer":0,
			"byteLength":24,
			"byteOffset":27220
		},
		{
			"buffer":0,
			"byteLength":24,
			"byteOffset":27244
		},
		{
			"buffer":0,
			"byteLength":4016,
			"byteOffset":27268
		},
		{
			"buffer":0,
			"byteLength":24,
			"byteOffset":31284
		},
		{
			"buffer":0,
			"byteLength":24,
			"byteOffset":31308
		},
		{
			"buffer":0,
			"byteLength":32,
			"byteOffset":31332
		},
		{
			"buffer":0,
			"byteLength":24,
			"byteOffset":31364
		},
		{
			"buffer":0,
			"byteLength":24,
			"byteOffset":31388
		},
		{
			"buffer":0,
			"byteLength":32,
			"byteOffset":31412
		},
		{
			"buffer":0,
			"byteLength":24,
			"byteOffset":31444
		},
		{
			"buffer":0,
			"byteLength":24,
			"byteOffset":31468
		},
		{
			"buffer":0,
			"byteLength":32,
			"byteOffset":31492
		},
		{
			"buffer":0,
			"byteLength":24,
			"byteOffset":31524
		},
		{
			"buffer":0,
			"byteLength":24,
			"byteOffset":31548
		},
		{
			"buffer":0,
			"byteLength":32,
			"byteOffset":31572
		},
		{
			"buffer":0,
			"byteLength":24,
			"byteOffset":31604
		},
		{
			"buffer":0,
			"byteLength":24,
			"byteOffset":31628
		},
		{
			"buffer":0,
			"byteLength":32,
			"byteOffset":31652
		},
		{
			"buffer":0,
			"byteLength":24,
			"byteOffset":31684
		},
		{
			"buffer":0,
			"byteLength":24,
			"byteOffset":31708
		},
		{
			"buffer":0,
			"byteLength":4016,
			"byteOffset":31732
		},
		{
			"buffer":0,
			"byteLength":24,
			"byteOffset":35748
		},
		{
			"buffer":0,
			"byteLength":24,
			"byteOffset":35772
		},
		{
			"buffer":0,
			"byteLength":32,
			"byteOffset":35796
		},
		{
			"buffer":0,
			"byteLength":24,
			"byteOffset":35828
		},
		{
			"buffer":0,
			"byteLength":24,
			"byteOffset":35852
		},
		{
			"buffer":0,
			"byteLength":4016,
			"byteOffset":35876
		},
		{
			"buffer":0,
			"byteLength":24,
			"byteOffset":39892
		},
		{
			"buffer":0,
			"byteLength":24,
			"byteOffset":39916
		},
		{
			"buffer":0,
			"byteLength":4016,
			"byteOffset":39940
		},
		{
			"buffer":0,
			"byteLength":24,
			"byteOffset":43956
		},
		{
			"buffer":0,
			"byteLength":24,
			"byteOffset":43980
		},
		{
			"buffer":0,
			"byteLength":4016,
			"byteOffset":44004
		},
		{
			"buffer":0,
			"byteLength":24,
			"byteOffset":48020
		},
		{
			"buffer":0,
			"byteLength":24,
			"byteOffset":48044
		},
		{
			"buffer":0,
			"byteLength":32,
			"byteOffset":48068
		},
		{
			"buffer":0,
			"byteLength":24,
			"byteOffset":48100
		},
		{
			"buffer":0,
			"byteLength":24,
			"byteOffset":48124
		},
		{
			"buffer":0,
			"byteLength":4016,
			"byteOffset":48148
		},
		{
			"buffer":0,
			"byteLength":24,
			"byteOffset":52164
		},
		{
			"buffer":0,
			"byteLength":24,
			"byteOffset":52188
		},
		{
			"buffer":0,
			"byteLength":4016,
			"byteOffset":52212
		},
		{
			"buffer":0,
			"byteLength":24,
			"byteOffset":56228
		},
		{
			"buffer":0,
			"byteLength":24,
			"byteOffset":56252
		},
		{
			"buffer":0,
			"byteLength":32,
			"byteOffset":56276
		},
		{
			"buffer":0,
			"byteLength":24,
			"byteOffset":56308
		}
	],
	"buffers":[
		{
			"byteLength":56332,
			"uri":"OSITO.bin"
		}
	]
}
